<svg xmlns="http://www.w3.org/2000/svg" width="250" height="250" viewBox="0 0 250 250">
  <metadata><?xpacket begin="﻿" id="W5M0MpCehiHzreSzNTczkc9d"?>
<x:xmpmeta xmlns:x="adobe:ns:meta/" x:xmptk="Adobe XMP Core 5.6-c142 79.160924, 2017/07/13-01:06:39        ">
   <rdf:RDF xmlns:rdf="http://www.w3.org/1999/02/22-rdf-syntax-ns#">
      <rdf:Description rdf:about=""/>
   </rdf:RDF>
</x:xmpmeta>
                                                                                                    
                                                                                                    
                                                                                                    
                                                                                                    
                                                                                                    
                                                                                                    
                                                                                                    
                                                                                                    
                                                                                                    
                                                                                                    
                                                                                                    
                                                                                                    
                                                                                                    
                                                                                                    
                                                                                                    
                                                                                                    
                                                                                                    
                                                                                                    
                                                                                                    
                                                                                                    
                           
<?xpacket end="w"?></metadata>
<defs>
    <style>
      .cls-1 {
        fill: #1da1f2;
        fill-rule: evenodd;
      }
    </style>
  </defs>
  <path id="Logo_FIXED" data-name="Logo — FIXED" class="cls-1" d="M78.623,227c94.344,0,145.936-78.093,145.936-145.809,0-2.219-.045-4.428-0.147-6.625A104.315,104.315,0,0,0,250,48.033,102.457,102.457,0,0,1,220.545,56.1,51.429,51.429,0,0,0,243.1,27.752,102.834,102.834,0,0,1,210.53,40.191a51.322,51.322,0,0,0-87.408,46.737A145.659,145.659,0,0,1,17.4,33.385,51.257,51.257,0,0,0,33.278,101.8a50.941,50.941,0,0,1-23.231-6.41c-0.011.214-.011,0.428-0.011,0.653a51.28,51.28,0,0,0,41.15,50.241,51.23,51.23,0,0,1-23.163.878,51.343,51.343,0,0,0,47.916,35.594,102.978,102.978,0,0,1-63.7,21.937A104.315,104.315,0,0,1,0,203.982,145.3,145.3,0,0,0,78.623,227"/>
</svg>
